<?xml version="1.0" encoding="utf-8"?><svg xmlns="http://www.w3.org/2000/svg" xmlns:xlink="http://www.w3.org/1999/xlink"><symbol viewBox="0 0 8 14" id="arrow-right" xmlns="http://www.w3.org/2000/svg"><path d="M7.703 7.693l-6.02 6.02a.98.98 0 1 1-1.386-1.387L5.623 7 .297 1.674A.98.98 0 0 1 1.684.287l6.02 6.02a.977.977 0 0 1 0 1.386z"/></symbol><symbol viewBox="0 0 10 6" id="arrow-up" xmlns="http://www.w3.org/2000/svg"><path d="M4.505.505l-4.3 4.3a.7.7 0 1 0 .99.99L5 1.99l3.805 3.805a.7.7 0 0 0 .99-.99l-4.3-4.3a.698.698 0 0 0-.99 0z"/></symbol><symbol viewBox="0 0 14 20" id="map" xmlns="http://www.w3.org/2000/svg"><path d="M7 0C3.13 0 0 3.13 0 7c0 5.25 7 13 7 13s7-7.75 7-13c0-3.87-3.13-7-7-7zm0 9.5a2.5 2.5 0 0 1 0-5 2.5 2.5 0 0 1 0 5z" fill-opacity=".75"/></symbol><symbol viewBox="0 0 30 30" id="menu" xmlns="http://www.w3.org/2000/svg"><path d="M3.75 21.25c0 .69.56 1.25 1.25 1.25h20a1.25 1.25 0 0 0 0-2.5H5c-.69 0-1.25.56-1.25 1.25zm0-6.25c0 .69.56 1.25 1.25 1.25h20a1.25 1.25 0 1 0 0-2.5H5c-.69 0-1.25.56-1.25 1.25zM5 7.5A1.25 1.25 0 1 0 5 10h20a1.25 1.25 0 1 0 0-2.5H5z"/></symbol><symbol viewBox="0 0 24 24" id="phone" xmlns="http://www.w3.org/2000/svg"><path d="M6.62 10.79c1.44 2.83 3.76 5.14 6.59 6.59l2.2-2.2c.27-.27.67-.36 1.02-.24 1.12.37 2.33.57 3.57.57.55 0 1 .45 1 1V20c0 .55-.45 1-1 1-9.39 0-17-7.61-17-17 0-.55.45-1 1-1h3.5c.55 0 1 .45 1 1 0 1.25.2 2.45.57 3.57.11.35.03.74-.25 1.02l-2.2 2.2z" fill-opacity=".75"/></symbol><symbol viewBox="0 0 14 14" id="search" xmlns="http://www.w3.org/2000/svg"><path d="M9.625 8.5h-.592l-.21-.203A4.853 4.853 0 0 0 10 5.125 4.875 4.875 0 1 0 5.125 10a4.853 4.853 0 0 0 3.172-1.178l.203.21v.593l3.75 3.742 1.117-1.117L9.625 8.5zm-4.5 0A3.37 3.37 0 0 1 1.75 5.125 3.37 3.37 0 0 1 5.125 1.75 3.37 3.37 0 0 1 8.5 5.125 3.37 3.37 0 0 1 5.125 8.5z"/></symbol><symbol viewBox="0 0 24 24" id="time" xmlns="http://www.w3.org/2000/svg"><path d="M11.99 2C6.47 2 2 6.48 2 12s4.47 10 9.99 10C17.52 22 22 17.52 22 12S17.52 2 11.99 2zM12 20c-4.42 0-8-3.58-8-8s3.58-8 8-8 8 3.58 8 8-3.58 8-8 8z" fill-opacity=".75"/><path d="M12.5 7H11v6l5.25 3.15.75-1.23-4.5-2.67V7z" fill-opacity=".75"/></symbol></svg>